<?xml version="1.0" encoding="UTF-8" standalone="no"?>
<svg
  xmlns:dc="http://purl.org/dc/elements/1.1/"
  xmlns:cc="http://creativecommons.org/ns#"
  xmlns:rdf="http://www.w3.org/1999/02/22-rdf-syntax-ns#"
  xmlns:svg="http://www.w3.org/2000/svg"
  xmlns="http://www.w3.org/2000/svg"
  height="500px"
  width="500px"
  id="bob-logo"
  version="1.1"
  viewBox="0 0 500 500"
  xml:space="preserve"
>
  <metadata id="metadata3789">
    <rdf:RDF>
      <cc:Work rdf:about="">
        <dc:format>image/svg+xml</dc:format>
        <dc:type rdf:resource="http://purl.org/dc/dcmitype/StillImage" />
      </cc:Work>
    </rdf:RDF>
  </metadata>
  <g id="background">
    <rect
      style="fill:#324a5e;fill-opacity:1"
      id="bg-color"
      width="500"
      height="500"
      x="0"
      y="0"
    />
    <g id="stars">
      <path
        id="star-1"
        d="m 35.43539,43.228227 -2.149479,-1.152281 -2.167794,1.117444 0.431658,-2.40035 -1.732637,-1.716386 2.416259,-0.331217 1.096965,-2.178229 1.061671,2.195647 2.4106,0.370167 -1.76011,1.688201 z"
        style="fill:#cccccc;fill-opacity:1"
      />
      <path
        id="star-2"
        d="m 112.71015,72.686563 -2.65795,-0.901336 -2.24933,1.678573 0.0359,-2.806388 -2.29149,-1.620533 2.68011,-0.833106 0.83311,-2.680118 1.62053,2.291499 2.80639,-0.03587 -1.67857,2.249331 z"
        style="fill:#cccccc;fill-opacity:1"
      />
      <path
        id="star-3"
        d="m 34.581523,225.52835 -2.149479,-1.15228 -2.167794,1.11745 0.431659,-2.40036 -1.732638,-1.71638 2.416259,-0.33122 1.096965,-2.17823 1.061672,2.19565 2.410599,0.37017 -1.76011,1.6882 z"
        style="fill:#cccccc;fill-opacity:1"
      />
      <path
        id="star-4"
        d="m 56.78201,463.3297 -3.037656,-1.03009 -2.570663,1.91837 0.041,-3.2073 -2.618857,-1.85204 3.062992,-0.95212 0.952121,-3.063 1.852038,2.61886 3.2073,-0.041 -1.918369,2.57066 z"
        style="fill:#cccccc;fill-opacity:1"
      />
      <path
        id="star-5"
        d="m 95.205921,376.23551 -1.895244,-1.27776 -2.127026,0.83688 0.629553,-2.19733 -1.453206,-1.76431 2.284329,-0.0803 1.228894,-1.92729 0.782241,2.14772 2.212705,0.57319 -1.800878,1.40763 z"
        style="fill:#cccccc;fill-opacity:1"
      />
      <path
        id="star-6"
        d="m 306.53748,475.2838 -4.68854,-0.5315 -3.09584,3.56099 -0.94335,-4.62331 -4.34336,-1.84391 4.10551,-2.32586 0.41149,-4.70059 3.48069,3.18585 4.59769,-1.06122 -1.95433,4.29482 z"
        style="fill:#cccccc;fill-opacity:1"
      />
      <path
        id="star-7"
        d="m 438.03263,395.02052 -0.87501,-2.41358 -2.48432,-0.64748 2.02506,-1.57803 -0.1519,-2.5628 2.12657,1.43831 2.39043,-0.93642 -0.71077,2.46695 1.62928,1.98406 -2.56585,0.0864 z"
        style="fill:#cccccc;fill-opacity:1"
      />
      <path
        id="star-8"
        d="m 484.14135,494.49575 -1.77307,-0.38957 -1.3261,1.23975 -0.17739,-1.80667 -1.58886,-0.87809 1.66342,-0.72701 0.34413,-1.78244 1.20545,1.35735 1.80155,-0.22351 -0.91842,1.56589 z"
        style="fill:#cccccc;fill-opacity:1"
      />
      <path
        id="star-9"
        d="m 434.19027,205.88947 -1.64759,-0.13534 -1.04554,1.28052 -0.38042,-1.60878 -1.54093,-0.59866 1.41248,-0.85894 0.0932,-1.65051 1.25337,1.07793 1.59853,-0.42141 -0.63785,1.52512 z"
        style="fill:#cccccc;fill-opacity:1"
      />
      <path
        id="star-10"
        d="m 434.19025,214.85505 -1.01365,-0.13205 -0.68343,0.76016 -0.18765,-1.00484 -0.93414,-0.41509 0.89768,-0.48897 0.1061,-1.01669 0.74244,0.70264 0.99972,-0.21327 -0.43883,0.92323 z"
        style="fill:#cccccc;fill-opacity:1"
      />
      <path
        id="star-11"
        d="m 470.05257,47.497549 -3.04095,-0.396157 -2.0503,2.280471 -0.56294,-3.01453 -2.80243,-1.24525 2.69303,-1.466925 0.3183,-3.050077 2.22732,2.10792 2.99916,-0.639801 -1.31647,2.769691 z"
        style="fill:#cccccc;fill-opacity:1"
      />
      <path
        id="star-12"
        d="m 307.39132,54.755403 -1.39335,-0.260815 -1.00477,0.999953 -0.18252,-1.405756 -1.2615,-0.646588 1.28055,-0.60799 0.22512,-1.399566 0.97394,1.029997 1.40063,-0.218392 -0.67862,1.244564 z"
        style="fill:#cccccc;fill-opacity:1"
      />
      <path
        id="star-13"
        d="m 337.2766,10.781364 -0.88159,-1.145701 -1.44359,0.076722 0.81719,-1.1924886 -0.51906,-1.3492283 1.38665,0.4087023 1.1228,-0.9105913 0.0398,1.4450805 1.21298,0.7864519 -1.36205,0.4844065 z"
        style="fill:#cccccc;fill-opacity:1"
      />
    </g>
  </g>
  <g
    id="planet"
    transform="matrix(1.0474755,-0.73345026,0.73462741,1.0491567,-190,220)"
  >
    <path
      d="m 392.839,214.494 c 0,-69.114 -56.011,-125.124 -125.118,-125.124 -69.119,0 -125.13,56.01 -125.13,125.124 0,69.119 56.011,124.723 125.13,124.723 69.107,0 125.118,-55.604 125.118,-124.723 z"
      style="clip-rule:evenodd;display:inline;fill:#5f95dd;fill-opacity:1;fill-rule:evenodd"
      id="planet-border"
    />
    <path
      id="planet-sea"
      d="m 388.077,214.494 c 0,-66.732 -54.028,-120.751 -120.356,-120.751 -66.738,0 -120.75,54.019 -120.75,120.751 0,19.02381 4.44262,37.03542 12.35393,53.05067 19.67376,39.82654 60.79832,67.30733 108.39607,67.30733 66.328,0.001 120.356,-54.026 120.356,-120.358 z"
      style="clip-rule:evenodd;display:inline;fill:#5f95dd;fill-opacity:1;fill-rule:evenodd"
    />
    <g id="planet-lands">
      <path
        id="land-1"
        d="m 288.77,307.44 c -1.589,1.589 -3.97,1.987 -6.351,1.589 -1.19,-0.398 -2.382,-0.792 -3.572,-0.792 -1.601,0.394 -2.792,1.584 -3.982,3.173 -1.19,1.593 -2.381,3.58 -3.966,5.165 -0.398,0.398 -0.796,1.19 -0.796,1.987 0,1.991 1.987,2.385 3.178,2.385 1.584,-0.394 2.774,-1.593 4.364,-1.991 1.601,-0.394 2.791,0 4.376,-0.394 1.987,-0.398 3.571,-1.987 5.16,-3.178 1.19,-1.19 1.983,-2.382 2.382,-3.576 1.19,-1.987 0.791,-3.969 -0.793,-4.368 z"
        style="clip-rule:evenodd;fill:#abcb57;fill-opacity:1;fill-rule:evenodd"
      />
      <path
        id="land-2"
        style="clip-rule:evenodd;fill:#abcb57;fill-opacity:1;fill-rule:evenodd"
        d="m 207.745,205.36 c 0.792,-1.987 3.173,-2.779 4.364,-4.771 1.589,-2.382 -0.398,-5.555 -1.983,-8.736 -1.588,-2.381 -3.177,-6.359 0,-7.944 -2.381,-2.779 -3.572,-5.961 -4.762,-8.736 -1.601,-3.177 -3.982,-5.961 -7.554,-5.563 -2.381,0 -4.364,1.992 -6.352,3.576 -3.186,1.589 -6.363,1.986 -9.139,3.178 -2.779,1.189 -6.351,3.182 -6.75,6.753 -0.394,3.178 1.589,6.355 0,9.13 -1.584,3.58 -7.156,5.169 -5.567,8.343 0.394,0.8 0.792,1.991 1.19,2.39 1.191,2.381 -1.589,5.155 -3.97,6.752 l -19.854,15.885 c 0.394,3.97 0.792,8.74 2.381,12.706 0.394,0 0.394,0 0.792,0 2.381,0 5.555,-1.585 7.538,0.398 0.398,0.8 1.589,1.593 2.398,1.593 0.394,0 0.792,-0.395 1.19,-0.793 0.792,-1.592 1.585,-3.58 1.585,-5.563 2.779,2.779 5.953,5.563 8.732,8.736 4.38,-1.982 5.571,-8.338 10.333,-9.528 4.762,-1.589 9.936,3.966 14.299,2.382 3.572,-1.191 5.161,-5.564 7.952,-7.551 3.174,-2.381 8.33,-1.982 12.698,-1.19 1.191,-5.957 -1.19,-11.919 -5.161,-16.282 -2.377,-1.593 -5.157,-3.182 -4.36,-5.165 z"
      />
      <path
        id="land-3"
        style="clip-rule:evenodd;fill:#abcb57;fill-opacity:1;fill-rule:evenodd"
        d="m 251.439,135.056 c 0.394,-3.182 -3.588,-5.164 -5.969,-3.576 -0.395,-0.398 -1.191,-0.797 -1.585,-1.19 1.983,-3.177 7.156,-1.987 9.936,0.394 2.775,2.382 5.156,6.359 8.334,7.945 2.394,0 3.584,-3.174 3.982,-5.957 0,-2.382 -0.398,-5.161 1.584,-7.152 0.398,-0.793 1.191,-1.589 1.589,-2.779 0.793,-3.182 -4.364,-4.373 -5.555,-7.147 -0.796,-2.78 0.395,-5.164 1.19,-7.546 0.793,-2.381 0.395,-5.961 -1.986,-6.359 -3.186,5.169 -12.316,4.373 -14.312,9.533 -0.797,3.182 0,6.753 -3.178,7.943 -1.983,0.793 -3.966,-1.588 -4.364,-3.97 0,-2.774 0.792,-4.766 0.792,-7.147 0,-1.19 -0.394,-1.986 -0.394,-3.182 0,-1.986 1.19,-3.97 1.584,-5.559 0.398,-0.792 0.398,-1.584 0,-2.385 -22.235,4.372 -43.296,15.498 -60.375,32.572 -0.792,0.796 -1.584,1.986 -2.775,2.779 0.394,5.961 5.156,11.918 6.745,17.879 0.792,2.381 0.792,5.156 1.589,7.545 1.203,2.382 2.792,4.364 5.173,4.763 1.983,-2.381 2.381,-5.953 0.394,-8.343 1.589,-1.189 3.178,-1.584 3.97,-3.173 1.19,-1.19 1.19,-3.576 -0.792,-3.974 -0.796,-0.398 -1.987,0 -3.178,0 -3.173,0 -5.567,-3.971 -7.156,-7.152 6.762,-2.381 14.697,0 18.281,5.961 -0.792,-0.791 -1.203,-1.982 -1.995,-3.173 5.567,-1.597 11.122,-2.39 16.693,-1.991 1.589,0 3.173,0.395 4.364,-0.398 1.987,-0.792 3.177,-3.174 5.555,-3.174 1.589,0 2.779,0.793 4.38,1.191 6.353,1.19 12.306,-6.755 17.479,-3.178 z"
      />
      <path
        id="land-4"
        style="clip-rule:evenodd;fill:#abcb57;fill-opacity:1;fill-rule:evenodd"
        d="m 292.342,135.454 c 3.186,1.588 7.948,0.398 10.329,-2.39 0.792,-0.792 1.589,-1.19 2.381,-1.19 1.19,0 2.792,1.19 3.584,2.779 4.368,5.563 12.305,9.143 19.858,7.156 0.398,-2.386 -3.571,-3.576 -3.571,-5.957 0,-1.992 3.173,-3.182 5.16,-1.992 1.983,0.793 3.174,2.784 4.763,3.576 2.394,0.797 5.173,0.398 6.758,-0.792 1.588,-1.589 2.381,-4.372 1.588,-6.355 -0.397,-0.796 -0.792,-1.987 -0.397,-2.779 0.397,-1.198 1.986,-0.8 3.571,-0.8 1.589,0.402 3.174,0.8 4.763,1.197 -14.3,-14.299 -30.98,-23.441 -49.249,-28.996 v 0.395 c -1.191,3.572 -3.178,7.152 -4.364,10.325 -1.589,3.978 -1.987,9.134 -4.779,12.315 -1.19,1.191 -2.381,2.382 -3.173,3.971 -1.985,3.182 -0.4,7.943 2.778,9.537 z"
      />
      <path
        id="land-5"
        style="clip-rule:evenodd;fill:#abcb57;fill-opacity:1;fill-rule:evenodd"
        d="m 380.917,210.524 c -3.174,-1.991 -6.347,-5.961 -5.953,-10.333 0,-1.585 0.797,-2.775 0.797,-4.364 -0.797,-2.389 -2.382,-4.372 -3.572,-5.961 -3.173,-3.174 -6.363,-5.957 -9.935,-9.131 -3.971,-3.182 -9.936,-5.563 -13.508,-2.389 -0.792,0.793 -1.19,1.593 -1.982,2.389 -2.381,1.191 -4.763,0.395 -6.745,-0.397 -1.987,-0.792 -5.571,-0.398 -5.97,1.983 -0.395,3.173 3.982,4.371 4.779,7.151 0.394,0.792 0,1.584 0.394,2.381 0.398,4.372 6.749,5.956 9.127,2.783 1.589,-2.783 1.986,-6.753 4.778,-6.753 3.174,1.19 5.156,4.363 5.156,7.546 -0.792,-1.991 -4.364,-1.191 -5.555,0.397 -1.203,1.589 -1.601,3.971 -2.791,5.16 -2.779,3.182 -7.937,2.386 -11.508,0.402 -8.347,-2.783 -16.299,-5.563 -24.633,-8.346 -0.793,-0.797 -1.983,-1.19 -2.779,-0.797 -1.191,0.797 -1.585,2.39 -2.775,3.183 -2,1.19 -4.381,0.796 -5.97,-0.395 -1.585,-1.199 -3.173,-2.788 -5.156,-3.58 -2.381,-0.792 -4.774,0.398 -5.173,2.783 0,0.797 0,1.589 0.398,2.382 3.584,7.151 12.71,8.342 19.074,12.713 0.397,-2.782 4.363,-3.181 7.143,-1.99 2.382,1.589 3.174,4.372 3.572,7.545 0.41,2.789 0.41,5.563 1.999,8.344 2.382,3.575 7.538,5.164 11.109,3.575 2.792,-1.19 5.571,-3.182 7.555,-1.585 1.986,1.585 0.397,4.762 1.19,7.546 0.398,0.792 1.19,1.589 1.19,2.78 0.796,1.982 -2.775,3.173 -4.763,2.381 -1.982,-0.797 -3.173,-2.779 -5.173,-4.369 -1.585,-1.982 -3.571,-3.576 -5.555,-2.775 -2.381,-0.406 -4.364,3.174 -3.173,5.555 0.792,2.382 3.173,3.58 5.156,4.771 -0.395,2.382 -2.381,3.174 -4.364,3.174 -2.381,0 -3.97,-0.792 -5.571,-1.589 -4.762,-2.775 -10.715,-6.355 -11.109,-11.91 0,-1.596 0.395,-3.182 0,-5.168 -0.398,-5.559 -4.778,-9.529 -8.744,-12.711 -7.144,-3.974 -13.905,-7.943 -21.842,-7.15 -2.791,0.397 -5.965,1.588 -8.346,2.778 -5.161,2.39 -9.936,5.961 -13.905,9.537 -3.174,2.779 -5.953,6.354 -6.347,10.325 -0.398,5.563 3.572,9.927 7.936,13.506 3.97,3.174 9.143,6.355 11.125,11.516 -3.97,1.199 -4.363,5.958 -5.555,9.936 -2.791,8.339 -13.506,11.517 -18.285,19.46 -2.381,3.975 -2.775,9.536 -5.555,13.108 -1.19,1.584 -2.381,2.783 -3.174,5.164 -2.779,5.165 2.775,11.918 8.729,12.715 6.363,0.792 12.316,-2.39 17.095,-6.359 1.19,-0.792 2.382,-1.982 4.364,-2.381 1.19,-0.402 2.381,-0.402 3.572,-0.402 2.779,0 5.953,-0.398 8.744,-0.398 -1.19,0 -1.589,-1.983 -0.796,-2.775 0.796,-1.19 1.986,-1.589 2.779,-2.381 3.97,-1.991 6.745,-5.961 8.334,-10.333 1.982,4.372 8.347,3.579 12.71,1.597 4.381,-1.597 8.745,-2.788 13.113,-4.372 -3.178,0.395 -5.953,-1.986 -7.144,-4.771 -0.797,-3.173 -0.398,-6.354 0.792,-9.135 1.191,-2.779 2.779,-5.164 3.572,-7.943 0.792,-3.174 0.792,-5.962 1.589,-8.338 1.19,-2.788 2.381,-5.962 5.156,-6.754 1.19,5.957 0.398,11.52 -1.983,17.074 -1.982,3.979 -5.16,9.144 -1.982,12.316 1.19,1.589 3.174,1.987 5.156,2.779 5.173,0.793 9.936,1.589 14.697,2.39 -1.982,-6.359 -2.775,-13.113 -2.775,-19.07 0,-1.588 0.395,-3.571 1.585,-3.97 2.382,7.542 5.173,14.698 9.541,21.049 1.19,0.792 1.585,1.991 1.983,3.182 0,1.19 0,1.983 -0.398,3.173 -1.982,5.563 -4.762,9.927 -5.156,15.489 0,2.39 0.395,5.165 -0.398,7.944 3.97,-3.571 8.334,-7.151 12.316,-11.117 24.218,-23.831 35.742,-54.819 35.344,-86.196 -2.773,-1.193 -5.552,-2.383 -7.551,-3.574 z"
      />
      <path
        id="land-6"
        style="clip-rule:evenodd;fill:#abcb57;fill-opacity:1;fill-rule:evenodd"
        d="m 316.576,149.351 c -1.987,0.801 -1.589,2.783 -1.19,4.766 v -1.189 c 0.394,2.381 2.775,4.371 5.156,4.371 1.999,0.398 4.381,-0.792 5.97,-2.783 -2.779,-1.982 -5.174,-3.174 -7.555,-4.762 -0.398,-0.001 -1.589,-0.802 -2.381,-0.403 z"
      />
    </g>
  </g>
  <g id="clouds">
    <path
      id="cloud-1"
      d="m 174.96183,184.23127 c 1.3,0 2.5,-0.1 3.8,-0.1 20.1,0 40.1,0 60.2,0 3.7,0 3.4,0.5 3.4,-3.3 0,-1.9 0,-3.7 0.1,-5.6 0.2,-3.2 -0.9,-6.2 -2.7,-8.8 -1.7,-2.4 -3.8,-4.4 -6.3,-6 -3.9,-2.6 -8.2,-4.1 -12.7,-5.1 -4.5,-0.9 -9.1,-1 -13.7,-0.6 -1.7,0.1 -3,-0.2 -4.4,-1.1 -4.1,-2.6 -8.7,-4 -13.5,-4.6 -2.6,-0.3 -5.2,-0.5 -7.8,-0.5 -0.2,-0.4 -0.4,-0.8 -0.5,-1.2 -1,-5.2 -4,-9.1 -8,-12.3 -4.2,-3.4 -9,-5.6 -14.2,-7 -7.1,-1.9 -14.4,-2.3 -21.7,-1.3 -0.7,0.1 -1.4,0.4 -2.1,0.6 -10.6,0.2 -18.5,5.3 -24.5,13.8 -1.8,2.6 -2.7,5.6 -2.8,8.8 -0.1,4 -0.1,4 -4,4.1 -0.8,0 -1.7,0 -2.5,0 -5.399996,0.7 -10.299996,2.3 -14.699996,5.7 -2.6,2 -4.7,4.5 -5.6,7.7 -0.5,1.8 -1.4,2.6 -3.3,2.7 -2.2,0.2 -4.3,0.6 -6.3,1.6 -2.9,1.4 -5,3.3 -5.5,6.7 0.1,3.3 1.2,5.8 4.5,6.9 2.4,0.4 4.8,0 7.2,0 24.799996,0 49.499996,0 74.299996,0 6.7,0.3 13.5,0.1 20.2,0.1 1.1,-0.3 2.2,-0.3 3.1,-1.2 z"
      style="clip-rule:evenodd;fill:#ffffff;fill-rule:evenodd"
    />
    <path
      id="cloud-2"
      d="m 399.37809,394.43007 c 1.39147,0 2.6759,-0.12516 4.06737,-0.12516 21.5142,0 42.92137,0 64.43558,0 3.96033,0 3.63922,0.6258 3.63922,-4.13022 0,-2.37801 0,-4.63086 0.10704,-7.00886 0.21407,-4.00507 -0.96333,-7.75982 -2.88997,-11.01394 -1.81961,-3.0038 -4.06736,-5.50696 -6.74326,-7.50949 -4.1744,-3.25412 -8.77694,-5.13149 -13.59355,-6.38308 -4.81662,-1.12642 -9.74027,-1.25158 -14.66392,-0.75095 -1.81961,0.12516 -3.21107,-0.25031 -4.70957,-1.37674 -4.38847,-3.25411 -9.31212,-5.00633 -14.44984,-5.75728 -2.78294,-0.37548 -5.56587,-0.62579 -8.3488,-0.62579 -0.21407,-0.50064 -0.42814,-1.00127 -0.53518,-1.5019 -1.07036,-6.50823 -4.28143,-11.38941 -8.56287,-15.39447 -4.4955,-4.25539 -9.63323,-7.00887 -15.19909,-8.76109 -7.59955,-2.378 -15.41316,-2.87864 -23.22678,-1.62705 -0.74925,0.12516 -1.4985,0.50063 -2.24775,0.75095 -11.3458,0.25031 -19.80164,6.63339 -26.22379,17.27184 -1.92664,3.25412 -2.88997,7.00887 -2.997,11.01393 -0.10704,5.00634 -0.10704,5.00634 -4.28144,5.13149 -0.85628,0 -1.81961,0 -2.67589,0 -5.77994,0.87611 -11.02469,2.87865 -15.73427,7.13403 -2.78293,2.50316 -5.03069,5.63212 -5.99401,9.63719 -0.53518,2.25285 -1.4985,3.25411 -3.53218,3.37927 -2.35479,0.25032 -4.60255,0.75095 -6.74326,2.00253 -3.10404,1.75222 -5.3518,4.13023 -5.88697,8.38561 0.10703,4.13023 1.28443,7.25918 4.81661,8.63592 2.56886,0.50064 5.13772,0 7.70658,0 26.54489,0 52.98275,0 79.52764,0 7.1714,0.37548 14.44984,0.12516 21.62124,0.12516 1.1774,-0.37547 2.35479,-0.37547 3.31811,-1.5019 z"
      style="clip-rule:evenodd;fill:#ffffff;fill-rule:evenodd;stroke-width:1.15742934"
    />
    <path
      id="cloud-3"
      d="m 143.02423,332.45366 c 0.72294,0 1.39027,-0.0491 2.11321,-0.0491 11.17776,0 22.29991,0 33.47767,0 2.0576,0 1.89077,0.24549 1.89077,-1.62028 0,-0.93289 0,-1.81668 0.0556,-2.74956 0.11122,-1.57118 -0.5005,-3.04416 -1.50149,-4.32075 -0.94538,-1.17838 -2.11321,-2.16037 -3.50348,-2.94596 -2.16882,-1.27658 -4.56008,-2.01307 -7.06256,-2.50406 -2.50249,-0.4419 -5.06058,-0.491 -7.61868,-0.2946 -0.94538,0.0491 -1.66832,-0.0982 -2.44687,-0.54009 -2.28004,-1.27659 -4.83813,-1.96398 -7.50745,-2.25857 -1.44588,-0.1473 -2.89176,-0.2455 -4.33764,-0.2455 -0.11122,-0.1964 -0.22244,-0.39279 -0.27805,-0.58919 -0.55611,-2.55317 -2.22443,-4.46804 -4.44886,-6.03922 -2.33565,-1.66938 -5.00497,-2.74956 -7.89673,-3.43696 -3.94836,-0.93288 -8.00794,-1.12928 -12.06753,-0.63829 -0.38927,0.0491 -0.77855,0.1964 -1.16782,0.2946 -5.89474,0.0982 -10.28799,2.60226 -13.62464,6.77571 -1.00099,1.27658 -1.50149,2.74956 -1.5571,4.32074 -0.0556,1.96398 -0.0556,1.96398 -2.22443,2.01307 -0.44488,0 -0.94538,0 -1.39027,0 -3.002983,0.3437 -5.727903,1.12929 -8.174783,2.79867 -1.44588,0.98198 -2.6137,2.20947 -3.1142,3.78065 -0.27805,0.88379 -0.77855,1.27658 -1.83515,1.32568 -1.22344,0.0982 -2.39126,0.2946 -3.50348,0.78559 -1.61271,0.68739 -2.78053,1.62028 -3.05859,3.28966 0.0556,1.62027 0.66733,2.84776 2.50249,3.38785 1.33465,0.1964 2.66931,0 4.00397,0 13.791463,0 27.527323,0 41.318783,0 3.72592,0.1473 7.50745,0.0491 11.23337,0.0491 0.61172,-0.1473 1.22344,-0.1473 1.72393,-0.58919 z"
      style="clip-rule:evenodd;fill:#ffffff;fill-rule:evenodd;stroke-width:0.52253723"
    />
  </g>
</svg>